<mxfile host="app.diagrams.net" modified="2024-03-20T21:53:58.898Z" agent="Mozilla/5.0 (Windows NT 10.0; Win64; x64) AppleWebKit/537.36 (KHTML, like Gecko) Chrome/121.0.0.0 Safari/537.36 OPR/107.0.0.0" etag="xwwiC4Za9Whq3WxKgC0q" version="24.0.7" type="device">
  <diagram id="C5RBs43oDa-KdzZeNtuy" name="Page-1">
    <mxGraphModel dx="2845" dy="1084" grid="1" gridSize="10" guides="1" tooltips="1" connect="1" arrows="1" fold="1" page="1" pageScale="1" pageWidth="827" pageHeight="1169" math="0" shadow="0">
      <root>
        <mxCell id="WIyWlLk6GJQsqaUBKTNV-0" />
        <mxCell id="WIyWlLk6GJQsqaUBKTNV-1" parent="WIyWlLk6GJQsqaUBKTNV-0" />
        <mxCell id="u5Uj2PZvU90YkLQhT8Kh-200" style="edgeStyle=orthogonalEdgeStyle;rounded=0;orthogonalLoop=1;jettySize=auto;html=1;exitX=1;exitY=0;exitDx=0;exitDy=0;entryX=0;entryY=0.25;entryDx=0;entryDy=0;" parent="WIyWlLk6GJQsqaUBKTNV-1" source="zkfFHV4jXpPFQw0GAbJ--0" target="u5Uj2PZvU90YkLQhT8Kh-102" edge="1">
          <mxGeometry relative="1" as="geometry">
            <Array as="points">
              <mxPoint x="7" y="230" />
              <mxPoint x="220" y="230" />
              <mxPoint x="220" y="170" />
            </Array>
          </mxGeometry>
        </mxCell>
        <mxCell id="zkfFHV4jXpPFQw0GAbJ--0" value="Auteur" style="swimlane;fontStyle=0;align=center;verticalAlign=top;childLayout=stackLayout;horizontal=1;startSize=26;horizontalStack=0;resizeParent=1;resizeLast=0;collapsible=1;marginBottom=0;rounded=0;shadow=0;strokeWidth=1;" parent="WIyWlLk6GJQsqaUBKTNV-1" vertex="1">
          <mxGeometry x="-182.5" y="320" width="190" height="150" as="geometry">
            <mxRectangle x="230" y="140" width="160" height="26" as="alternateBounds" />
          </mxGeometry>
        </mxCell>
        <mxCell id="zkfFHV4jXpPFQw0GAbJ--1" value="idNom" style="text;align=left;verticalAlign=top;spacingLeft=4;spacingRight=4;overflow=hidden;rotatable=0;points=[[0,0.5],[1,0.5]];portConstraint=eastwest;" parent="zkfFHV4jXpPFQw0GAbJ--0" vertex="1">
          <mxGeometry y="26" width="190" height="26" as="geometry" />
        </mxCell>
        <mxCell id="zkfFHV4jXpPFQw0GAbJ--2" value="Email" style="text;align=left;verticalAlign=top;spacingLeft=4;spacingRight=4;overflow=hidden;rotatable=0;points=[[0,0.5],[1,0.5]];portConstraint=eastwest;rounded=0;shadow=0;html=0;" parent="zkfFHV4jXpPFQw0GAbJ--0" vertex="1">
          <mxGeometry y="52" width="190" height="26" as="geometry" />
        </mxCell>
        <mxCell id="zkfFHV4jXpPFQw0GAbJ--5" value="Biographie" style="text;align=left;verticalAlign=top;spacingLeft=4;spacingRight=4;overflow=hidden;rotatable=0;points=[[0,0.5],[1,0.5]];portConstraint=eastwest;" parent="zkfFHV4jXpPFQw0GAbJ--0" vertex="1">
          <mxGeometry y="78" width="190" height="32" as="geometry" />
        </mxCell>
        <mxCell id="zkfFHV4jXpPFQw0GAbJ--3" value="Photo" style="text;align=left;verticalAlign=top;spacingLeft=4;spacingRight=4;overflow=hidden;rotatable=0;points=[[0,0.5],[1,0.5]];portConstraint=eastwest;rounded=0;shadow=0;html=0;" parent="zkfFHV4jXpPFQw0GAbJ--0" vertex="1">
          <mxGeometry y="110" width="190" height="26" as="geometry" />
        </mxCell>
        <mxCell id="u5Uj2PZvU90YkLQhT8Kh-27" value="User" style="swimlane;fontStyle=0;childLayout=stackLayout;horizontal=1;startSize=30;horizontalStack=0;resizeParent=1;resizeParentMax=0;resizeLast=0;collapsible=1;marginBottom=0;whiteSpace=wrap;html=1;" parent="WIyWlLk6GJQsqaUBKTNV-1" vertex="1">
          <mxGeometry x="280" y="20" width="170" height="260" as="geometry" />
        </mxCell>
        <mxCell id="u5Uj2PZvU90YkLQhT8Kh-28" value="id User" style="text;strokeColor=none;fillColor=none;align=left;verticalAlign=middle;spacingLeft=4;spacingRight=4;overflow=hidden;points=[[0,0.5],[1,0.5]];portConstraint=eastwest;rotatable=0;whiteSpace=wrap;html=1;" parent="u5Uj2PZvU90YkLQhT8Kh-27" vertex="1">
          <mxGeometry y="30" width="170" height="30" as="geometry" />
        </mxCell>
        <mxCell id="u5Uj2PZvU90YkLQhT8Kh-100" value="Nom d&#39;utilisateur" style="text;whiteSpace=wrap;html=1;" parent="u5Uj2PZvU90YkLQhT8Kh-27" vertex="1">
          <mxGeometry y="60" width="170" height="40" as="geometry" />
        </mxCell>
        <mxCell id="u5Uj2PZvU90YkLQhT8Kh-101" value="Email" style="text;whiteSpace=wrap;html=1;" parent="u5Uj2PZvU90YkLQhT8Kh-27" vertex="1">
          <mxGeometry y="100" width="170" height="40" as="geometry" />
        </mxCell>
        <mxCell id="u5Uj2PZvU90YkLQhT8Kh-102" value="Mot de passe" style="text;whiteSpace=wrap;html=1;" parent="u5Uj2PZvU90YkLQhT8Kh-27" vertex="1">
          <mxGeometry y="140" width="170" height="40" as="geometry" />
        </mxCell>
        <mxCell id="u5Uj2PZvU90YkLQhT8Kh-104" value="Abonnements de l&#39;utilisateur" style="text;whiteSpace=wrap;html=1;" parent="u5Uj2PZvU90YkLQhT8Kh-27" vertex="1">
          <mxGeometry y="180" width="170" height="40" as="geometry" />
        </mxCell>
        <mxCell id="u5Uj2PZvU90YkLQhT8Kh-103" value="Rôle de l&#39;utilisateur" style="text;whiteSpace=wrap;html=1;" parent="u5Uj2PZvU90YkLQhT8Kh-27" vertex="1">
          <mxGeometry y="220" width="170" height="40" as="geometry" />
        </mxCell>
        <mxCell id="u5Uj2PZvU90YkLQhT8Kh-33" value="Abonnements&amp;nbsp;" style="swimlane;fontStyle=0;childLayout=stackLayout;horizontal=1;startSize=30;horizontalStack=0;resizeParent=1;resizeParentMax=0;resizeLast=0;collapsible=1;marginBottom=0;whiteSpace=wrap;html=1;" parent="WIyWlLk6GJQsqaUBKTNV-1" vertex="1">
          <mxGeometry x="-165" y="60" width="165" height="150" as="geometry" />
        </mxCell>
        <mxCell id="u5Uj2PZvU90YkLQhT8Kh-97" value="type abo" style="text;whiteSpace=wrap;html=1;" parent="u5Uj2PZvU90YkLQhT8Kh-33" vertex="1">
          <mxGeometry y="30" width="165" height="40" as="geometry" />
        </mxCell>
        <mxCell id="u5Uj2PZvU90YkLQhT8Kh-98" value="Avantages de l&#39;abonnement" style="text;whiteSpace=wrap;html=1;" parent="u5Uj2PZvU90YkLQhT8Kh-33" vertex="1">
          <mxGeometry y="70" width="165" height="40" as="geometry" />
        </mxCell>
        <mxCell id="u5Uj2PZvU90YkLQhT8Kh-99" value="Utilisateurs abonnés" style="text;whiteSpace=wrap;html=1;" parent="u5Uj2PZvU90YkLQhT8Kh-33" vertex="1">
          <mxGeometry y="110" width="165" height="40" as="geometry" />
        </mxCell>
        <mxCell id="u5Uj2PZvU90YkLQhT8Kh-35" value="" style="endArrow=none;html=1;rounded=0;entryX=-0.01;entryY=0.233;entryDx=0;entryDy=0;exitX=1;exitY=0.5;exitDx=0;exitDy=0;entryPerimeter=0;" parent="WIyWlLk6GJQsqaUBKTNV-1" source="u5Uj2PZvU90YkLQhT8Kh-33" target="u5Uj2PZvU90YkLQhT8Kh-28" edge="1">
          <mxGeometry width="50" height="50" relative="1" as="geometry">
            <mxPoint x="150" y="100" as="sourcePoint" />
            <mxPoint x="610" y="-27" as="targetPoint" />
          </mxGeometry>
        </mxCell>
        <mxCell id="u5Uj2PZvU90YkLQhT8Kh-36" value="Categorie" style="swimlane;fontStyle=0;childLayout=stackLayout;horizontal=1;startSize=30;horizontalStack=0;resizeParent=1;resizeParentMax=0;resizeLast=0;collapsible=1;marginBottom=0;whiteSpace=wrap;html=1;" parent="WIyWlLk6GJQsqaUBKTNV-1" vertex="1">
          <mxGeometry x="-590" y="584" width="220" height="136" as="geometry" />
        </mxCell>
        <mxCell id="u5Uj2PZvU90YkLQhT8Kh-78" value="idCategorie" style="text;align=left;verticalAlign=top;spacingLeft=4;spacingRight=4;overflow=hidden;rotatable=0;points=[[0,0.5],[1,0.5]];portConstraint=eastwest;labelBackgroundColor=none;fontColor=default;" parent="u5Uj2PZvU90YkLQhT8Kh-36" vertex="1">
          <mxGeometry y="30" width="220" height="26" as="geometry" />
        </mxCell>
        <mxCell id="u5Uj2PZvU90YkLQhT8Kh-79" value="Nom de la catégorie" style="text;whiteSpace=wrap;html=1;" parent="u5Uj2PZvU90YkLQhT8Kh-36" vertex="1">
          <mxGeometry y="56" width="220" height="40" as="geometry" />
        </mxCell>
        <mxCell id="u5Uj2PZvU90YkLQhT8Kh-80" value="Description de la catégorie" style="text;whiteSpace=wrap;html=1;" parent="u5Uj2PZvU90YkLQhT8Kh-36" vertex="1">
          <mxGeometry y="96" width="220" height="40" as="geometry" />
        </mxCell>
        <mxCell id="u5Uj2PZvU90YkLQhT8Kh-37" value="" style="endArrow=none;html=1;rounded=0;entryX=0.25;entryY=1;entryDx=0;entryDy=0;exitX=0.25;exitY=0;exitDx=0;exitDy=0;" parent="WIyWlLk6GJQsqaUBKTNV-1" source="zkfFHV4jXpPFQw0GAbJ--0" target="u5Uj2PZvU90YkLQhT8Kh-33" edge="1">
          <mxGeometry width="50" height="50" relative="1" as="geometry">
            <mxPoint x="-380" y="190" as="sourcePoint" />
            <mxPoint x="-85" y="180" as="targetPoint" />
          </mxGeometry>
        </mxCell>
        <mxCell id="u5Uj2PZvU90YkLQhT8Kh-39" value="Article" style="swimlane;fontStyle=0;childLayout=stackLayout;horizontal=1;startSize=30;horizontalStack=0;resizeParent=1;resizeParentMax=0;resizeLast=0;collapsible=1;marginBottom=0;whiteSpace=wrap;html=1;" parent="WIyWlLk6GJQsqaUBKTNV-1" vertex="1">
          <mxGeometry x="-190" y="585" width="190" height="270" as="geometry" />
        </mxCell>
        <mxCell id="u5Uj2PZvU90YkLQhT8Kh-81" value="Identifiant" style="text;whiteSpace=wrap;html=1;" parent="u5Uj2PZvU90YkLQhT8Kh-39" vertex="1">
          <mxGeometry y="30" width="190" height="40" as="geometry" />
        </mxCell>
        <mxCell id="u5Uj2PZvU90YkLQhT8Kh-82" value="Titre de l&#39;article&lt;div&gt;&lt;br&gt;&lt;/div&gt;" style="text;whiteSpace=wrap;html=1;" parent="u5Uj2PZvU90YkLQhT8Kh-39" vertex="1">
          <mxGeometry y="70" width="190" height="40" as="geometry" />
        </mxCell>
        <mxCell id="u5Uj2PZvU90YkLQhT8Kh-83" value="Contenu de l&#39;article" style="text;whiteSpace=wrap;html=1;" parent="u5Uj2PZvU90YkLQhT8Kh-39" vertex="1">
          <mxGeometry y="110" width="190" height="40" as="geometry" />
        </mxCell>
        <mxCell id="u5Uj2PZvU90YkLQhT8Kh-84" value="Date de publication" style="text;whiteSpace=wrap;html=1;" parent="u5Uj2PZvU90YkLQhT8Kh-39" vertex="1">
          <mxGeometry y="150" width="190" height="40" as="geometry" />
        </mxCell>
        <mxCell id="u5Uj2PZvU90YkLQhT8Kh-85" value="Auteur de l&#39;article" style="text;whiteSpace=wrap;html=1;" parent="u5Uj2PZvU90YkLQhT8Kh-39" vertex="1">
          <mxGeometry y="190" width="190" height="40" as="geometry" />
        </mxCell>
        <mxCell id="u5Uj2PZvU90YkLQhT8Kh-86" value="Statut de publication&amp;nbsp;" style="text;whiteSpace=wrap;html=1;" parent="u5Uj2PZvU90YkLQhT8Kh-39" vertex="1">
          <mxGeometry y="230" width="190" height="40" as="geometry" />
        </mxCell>
        <mxCell id="u5Uj2PZvU90YkLQhT8Kh-40" value="Réponse" style="swimlane;fontStyle=0;childLayout=stackLayout;horizontal=1;startSize=30;horizontalStack=0;resizeParent=1;resizeParentMax=0;resizeLast=0;collapsible=1;marginBottom=0;whiteSpace=wrap;html=1;" parent="WIyWlLk6GJQsqaUBKTNV-1" vertex="1">
          <mxGeometry x="520" y="670" width="165" height="190" as="geometry" />
        </mxCell>
        <mxCell id="u5Uj2PZvU90YkLQhT8Kh-105" value="Contenu de la réponse" style="text;whiteSpace=wrap;html=1;" parent="u5Uj2PZvU90YkLQhT8Kh-40" vertex="1">
          <mxGeometry y="30" width="165" height="40" as="geometry" />
        </mxCell>
        <mxCell id="u5Uj2PZvU90YkLQhT8Kh-106" value="Auteur de la réponse" style="text;whiteSpace=wrap;html=1;" parent="u5Uj2PZvU90YkLQhT8Kh-40" vertex="1">
          <mxGeometry y="70" width="165" height="40" as="geometry" />
        </mxCell>
        <mxCell id="u5Uj2PZvU90YkLQhT8Kh-107" value="Date de publication" style="text;whiteSpace=wrap;html=1;" parent="u5Uj2PZvU90YkLQhT8Kh-40" vertex="1">
          <mxGeometry y="110" width="165" height="40" as="geometry" />
        </mxCell>
        <mxCell id="u5Uj2PZvU90YkLQhT8Kh-108" value="Statut de publication" style="text;whiteSpace=wrap;html=1;" parent="u5Uj2PZvU90YkLQhT8Kh-40" vertex="1">
          <mxGeometry y="150" width="165" height="40" as="geometry" />
        </mxCell>
        <mxCell id="u5Uj2PZvU90YkLQhT8Kh-41" value="RETOUR clients&amp;nbsp;" style="swimlane;fontStyle=0;childLayout=stackLayout;horizontal=1;startSize=30;horizontalStack=0;resizeParent=1;resizeParentMax=0;resizeLast=0;collapsible=1;marginBottom=0;whiteSpace=wrap;html=1;" parent="WIyWlLk6GJQsqaUBKTNV-1" vertex="1">
          <mxGeometry x="80" y="360" width="180" height="150" as="geometry" />
        </mxCell>
        <mxCell id="u5Uj2PZvU90YkLQhT8Kh-109" value="relation type&amp;nbsp;" style="text;whiteSpace=wrap;html=1;" parent="u5Uj2PZvU90YkLQhT8Kh-41" vertex="1">
          <mxGeometry y="30" width="180" height="40" as="geometry" />
        </mxCell>
        <mxCell id="u5Uj2PZvU90YkLQhT8Kh-110" value="Utilisateur ayant réagi" style="text;whiteSpace=wrap;html=1;" parent="u5Uj2PZvU90YkLQhT8Kh-41" vertex="1">
          <mxGeometry y="70" width="180" height="40" as="geometry" />
        </mxCell>
        <mxCell id="u5Uj2PZvU90YkLQhT8Kh-111" value="avis sous toutes les forme&amp;nbsp;" style="text;whiteSpace=wrap;html=1;" parent="u5Uj2PZvU90YkLQhT8Kh-41" vertex="1">
          <mxGeometry y="110" width="180" height="40" as="geometry" />
        </mxCell>
        <mxCell id="u5Uj2PZvU90YkLQhT8Kh-198" style="edgeStyle=orthogonalEdgeStyle;rounded=0;orthogonalLoop=1;jettySize=auto;html=1;exitX=0.5;exitY=0;exitDx=0;exitDy=0;entryX=1;entryY=0.5;entryDx=0;entryDy=0;" parent="WIyWlLk6GJQsqaUBKTNV-1" source="u5Uj2PZvU90YkLQhT8Kh-42" target="u5Uj2PZvU90YkLQhT8Kh-28" edge="1">
          <mxGeometry relative="1" as="geometry" />
        </mxCell>
        <mxCell id="u5Uj2PZvU90YkLQhT8Kh-42" value="client" style="swimlane;fontStyle=0;childLayout=stackLayout;horizontal=1;startSize=30;horizontalStack=0;resizeParent=1;resizeParentMax=0;resizeLast=0;collapsible=1;marginBottom=0;whiteSpace=wrap;html=1;" parent="WIyWlLk6GJQsqaUBKTNV-1" vertex="1">
          <mxGeometry x="860" y="140" width="140" height="190" as="geometry" />
        </mxCell>
        <mxCell id="u5Uj2PZvU90YkLQhT8Kh-112" value="Nom du client" style="text;whiteSpace=wrap;html=1;" parent="u5Uj2PZvU90YkLQhT8Kh-42" vertex="1">
          <mxGeometry y="30" width="140" height="40" as="geometry" />
        </mxCell>
        <mxCell id="u5Uj2PZvU90YkLQhT8Kh-113" value="Adresse email" style="text;whiteSpace=wrap;html=1;" parent="u5Uj2PZvU90YkLQhT8Kh-42" vertex="1">
          <mxGeometry y="70" width="140" height="40" as="geometry" />
        </mxCell>
        <mxCell id="u5Uj2PZvU90YkLQhT8Kh-114" value="Numéro de téléphone" style="text;whiteSpace=wrap;html=1;" parent="u5Uj2PZvU90YkLQhT8Kh-42" vertex="1">
          <mxGeometry y="110" width="140" height="40" as="geometry" />
        </mxCell>
        <mxCell id="u5Uj2PZvU90YkLQhT8Kh-115" value="Adresse de livraison" style="text;whiteSpace=wrap;html=1;" parent="u5Uj2PZvU90YkLQhT8Kh-42" vertex="1">
          <mxGeometry y="150" width="140" height="40" as="geometry" />
        </mxCell>
        <mxCell id="u5Uj2PZvU90YkLQhT8Kh-43" value="Commentaire" style="swimlane;fontStyle=0;childLayout=stackLayout;horizontal=1;startSize=30;horizontalStack=0;resizeParent=1;resizeParentMax=0;resizeLast=0;collapsible=1;marginBottom=0;whiteSpace=wrap;html=1;" parent="WIyWlLk6GJQsqaUBKTNV-1" vertex="1">
          <mxGeometry x="170" y="585" width="165" height="270" as="geometry" />
        </mxCell>
        <mxCell id="u5Uj2PZvU90YkLQhT8Kh-91" value="ID com" style="text;whiteSpace=wrap;html=1;" parent="u5Uj2PZvU90YkLQhT8Kh-43" vertex="1">
          <mxGeometry y="30" width="165" height="40" as="geometry" />
        </mxCell>
        <mxCell id="u5Uj2PZvU90YkLQhT8Kh-92" value="Contenu du commentaire" style="text;whiteSpace=wrap;html=1;" parent="u5Uj2PZvU90YkLQhT8Kh-43" vertex="1">
          <mxGeometry y="70" width="165" height="40" as="geometry" />
        </mxCell>
        <mxCell id="u5Uj2PZvU90YkLQhT8Kh-93" value="Auteur du commentaire" style="text;whiteSpace=wrap;html=1;" parent="u5Uj2PZvU90YkLQhT8Kh-43" vertex="1">
          <mxGeometry y="110" width="165" height="40" as="geometry" />
        </mxCell>
        <mxCell id="u5Uj2PZvU90YkLQhT8Kh-94" value="Date de publication" style="text;whiteSpace=wrap;html=1;" parent="u5Uj2PZvU90YkLQhT8Kh-43" vertex="1">
          <mxGeometry y="150" width="165" height="40" as="geometry" />
        </mxCell>
        <mxCell id="u5Uj2PZvU90YkLQhT8Kh-96" value="Article commenté" style="text;whiteSpace=wrap;html=1;" parent="u5Uj2PZvU90YkLQhT8Kh-43" vertex="1">
          <mxGeometry y="190" width="165" height="40" as="geometry" />
        </mxCell>
        <mxCell id="u5Uj2PZvU90YkLQhT8Kh-95" value="Statut de publication" style="text;whiteSpace=wrap;html=1;" parent="u5Uj2PZvU90YkLQhT8Kh-43" vertex="1">
          <mxGeometry y="230" width="165" height="40" as="geometry" />
        </mxCell>
        <mxCell id="u5Uj2PZvU90YkLQhT8Kh-44" value="" style="endArrow=none;html=1;rounded=0;entryX=0;entryY=1;entryDx=0;entryDy=0;exitX=0.5;exitY=0;exitDx=0;exitDy=0;" parent="WIyWlLk6GJQsqaUBKTNV-1" source="u5Uj2PZvU90YkLQhT8Kh-41" target="u5Uj2PZvU90YkLQhT8Kh-103" edge="1">
          <mxGeometry width="50" height="50" relative="1" as="geometry">
            <mxPoint x="240" y="280" as="sourcePoint" />
            <mxPoint x="700" y="153" as="targetPoint" />
          </mxGeometry>
        </mxCell>
        <mxCell id="u5Uj2PZvU90YkLQhT8Kh-46" value="" style="endArrow=none;html=1;rounded=0;entryX=0;entryY=1;entryDx=0;entryDy=0;exitX=0.75;exitY=0;exitDx=0;exitDy=0;" parent="WIyWlLk6GJQsqaUBKTNV-1" source="u5Uj2PZvU90YkLQhT8Kh-39" target="u5Uj2PZvU90YkLQhT8Kh-41" edge="1">
          <mxGeometry width="50" height="50" relative="1" as="geometry">
            <mxPoint x="120" y="570" as="sourcePoint" />
            <mxPoint x="123" y="450" as="targetPoint" />
          </mxGeometry>
        </mxCell>
        <mxCell id="u5Uj2PZvU90YkLQhT8Kh-48" value="" style="endArrow=none;html=1;rounded=0;entryX=1;entryY=0;entryDx=0;entryDy=0;exitX=0;exitY=0;exitDx=0;exitDy=0;" parent="WIyWlLk6GJQsqaUBKTNV-1" source="u5Uj2PZvU90YkLQhT8Kh-149" target="u5Uj2PZvU90YkLQhT8Kh-36" edge="1">
          <mxGeometry width="50" height="50" relative="1" as="geometry">
            <mxPoint x="-290" y="470" as="sourcePoint" />
            <mxPoint x="-287" y="350" as="targetPoint" />
          </mxGeometry>
        </mxCell>
        <mxCell id="u5Uj2PZvU90YkLQhT8Kh-49" value="" style="endArrow=none;html=1;rounded=0;exitX=0.5;exitY=0;exitDx=0;exitDy=0;entryX=0.5;entryY=1;entryDx=0;entryDy=0;" parent="WIyWlLk6GJQsqaUBKTNV-1" source="u5Uj2PZvU90YkLQhT8Kh-39" target="zkfFHV4jXpPFQw0GAbJ--0" edge="1">
          <mxGeometry width="50" height="50" relative="1" as="geometry">
            <mxPoint x="-90" y="510" as="sourcePoint" />
            <mxPoint x="-110" y="450" as="targetPoint" />
          </mxGeometry>
        </mxCell>
        <mxCell id="u5Uj2PZvU90YkLQhT8Kh-50" value="" style="endArrow=none;html=1;rounded=0;entryX=0;entryY=0.5;entryDx=0;entryDy=0;exitX=1;exitY=0.5;exitDx=0;exitDy=0;" parent="WIyWlLk6GJQsqaUBKTNV-1" source="u5Uj2PZvU90YkLQhT8Kh-39" target="u5Uj2PZvU90YkLQhT8Kh-43" edge="1">
          <mxGeometry width="50" height="50" relative="1" as="geometry">
            <mxPoint x="60" y="620" as="sourcePoint" />
            <mxPoint x="63" y="500" as="targetPoint" />
          </mxGeometry>
        </mxCell>
        <mxCell id="u5Uj2PZvU90YkLQhT8Kh-51" value="" style="endArrow=none;html=1;rounded=0;entryX=0;entryY=1;entryDx=0;entryDy=0;exitX=0.5;exitY=1;exitDx=0;exitDy=0;" parent="WIyWlLk6GJQsqaUBKTNV-1" source="u5Uj2PZvU90YkLQhT8Kh-108" target="u5Uj2PZvU90YkLQhT8Kh-43" edge="1">
          <mxGeometry width="50" height="50" relative="1" as="geometry">
            <mxPoint x="60" y="720" as="sourcePoint" />
            <mxPoint x="63" y="600" as="targetPoint" />
            <Array as="points">
              <mxPoint x="430" y="870" />
            </Array>
          </mxGeometry>
        </mxCell>
        <mxCell id="u5Uj2PZvU90YkLQhT8Kh-53" value="" style="endArrow=none;html=1;rounded=0;exitX=1;exitY=0.5;exitDx=0;exitDy=0;entryX=0.5;entryY=1;entryDx=0;entryDy=0;" parent="WIyWlLk6GJQsqaUBKTNV-1" source="u5Uj2PZvU90YkLQhT8Kh-40" target="u5Uj2PZvU90YkLQhT8Kh-103" edge="1">
          <mxGeometry width="50" height="50" relative="1" as="geometry">
            <mxPoint x="380" y="730" as="sourcePoint" />
            <mxPoint x="510" y="110" as="targetPoint" />
            <Array as="points">
              <mxPoint x="630" y="280" />
            </Array>
          </mxGeometry>
        </mxCell>
        <mxCell id="u5Uj2PZvU90YkLQhT8Kh-199" style="edgeStyle=orthogonalEdgeStyle;rounded=0;orthogonalLoop=1;jettySize=auto;html=1;exitX=0;exitY=0;exitDx=0;exitDy=0;entryX=1;entryY=0.5;entryDx=0;entryDy=0;" parent="WIyWlLk6GJQsqaUBKTNV-1" source="u5Uj2PZvU90YkLQhT8Kh-55" target="u5Uj2PZvU90YkLQhT8Kh-28" edge="1">
          <mxGeometry relative="1" as="geometry">
            <Array as="points">
              <mxPoint x="1157" y="65" />
            </Array>
          </mxGeometry>
        </mxCell>
        <mxCell id="u5Uj2PZvU90YkLQhT8Kh-55" value="Vendeur" style="swimlane;fontStyle=0;childLayout=stackLayout;horizontal=1;startSize=30;horizontalStack=0;resizeParent=1;resizeParentMax=0;resizeLast=0;collapsible=1;marginBottom=0;whiteSpace=wrap;html=1;" parent="WIyWlLk6GJQsqaUBKTNV-1" vertex="1">
          <mxGeometry x="1157" y="50" width="140" height="190" as="geometry" />
        </mxCell>
        <mxCell id="u5Uj2PZvU90YkLQhT8Kh-126" value="Nom du vendeur" style="text;whiteSpace=wrap;html=1;" parent="u5Uj2PZvU90YkLQhT8Kh-55" vertex="1">
          <mxGeometry y="30" width="140" height="40" as="geometry" />
        </mxCell>
        <mxCell id="u5Uj2PZvU90YkLQhT8Kh-127" value="Adresse email" style="text;whiteSpace=wrap;html=1;" parent="u5Uj2PZvU90YkLQhT8Kh-55" vertex="1">
          <mxGeometry y="70" width="140" height="40" as="geometry" />
        </mxCell>
        <mxCell id="u5Uj2PZvU90YkLQhT8Kh-129" value="Numéro de téléphone" style="text;whiteSpace=wrap;html=1;" parent="u5Uj2PZvU90YkLQhT8Kh-55" vertex="1">
          <mxGeometry y="110" width="140" height="40" as="geometry" />
        </mxCell>
        <mxCell id="u5Uj2PZvU90YkLQhT8Kh-128" value="Produits vendus par le vendeur" style="text;whiteSpace=wrap;html=1;" parent="u5Uj2PZvU90YkLQhT8Kh-55" vertex="1">
          <mxGeometry y="150" width="140" height="40" as="geometry" />
        </mxCell>
        <mxCell id="u5Uj2PZvU90YkLQhT8Kh-56" value="Contact" style="swimlane;fontStyle=0;childLayout=stackLayout;horizontal=1;startSize=30;horizontalStack=0;resizeParent=1;resizeParentMax=0;resizeLast=0;collapsible=1;marginBottom=0;whiteSpace=wrap;html=1;" parent="WIyWlLk6GJQsqaUBKTNV-1" vertex="1">
          <mxGeometry x="930" y="400" width="140" height="60" as="geometry" />
        </mxCell>
        <mxCell id="rRpPaMV5QluzqFvEl-1M-2" value="Numero&amp;nbsp;" style="text;html=1;align=center;verticalAlign=middle;resizable=0;points=[];autosize=1;strokeColor=none;fillColor=none;" vertex="1" parent="u5Uj2PZvU90YkLQhT8Kh-56">
          <mxGeometry y="30" width="140" height="30" as="geometry" />
        </mxCell>
        <mxCell id="u5Uj2PZvU90YkLQhT8Kh-57" value="Produit" style="swimlane;fontStyle=0;childLayout=stackLayout;horizontal=1;startSize=30;horizontalStack=0;resizeParent=1;resizeParentMax=0;resizeLast=0;collapsible=1;marginBottom=0;whiteSpace=wrap;html=1;" parent="WIyWlLk6GJQsqaUBKTNV-1" vertex="1">
          <mxGeometry x="1180" y="350" width="140" height="190" as="geometry" />
        </mxCell>
        <mxCell id="u5Uj2PZvU90YkLQhT8Kh-122" value="Nom du produit" style="text;whiteSpace=wrap;html=1;" parent="u5Uj2PZvU90YkLQhT8Kh-57" vertex="1">
          <mxGeometry y="30" width="140" height="40" as="geometry" />
        </mxCell>
        <mxCell id="u5Uj2PZvU90YkLQhT8Kh-123" value="Description du produit" style="text;whiteSpace=wrap;html=1;" parent="u5Uj2PZvU90YkLQhT8Kh-57" vertex="1">
          <mxGeometry y="70" width="140" height="40" as="geometry" />
        </mxCell>
        <mxCell id="u5Uj2PZvU90YkLQhT8Kh-124" value="Prix du produit" style="text;whiteSpace=wrap;html=1;" parent="u5Uj2PZvU90YkLQhT8Kh-57" vertex="1">
          <mxGeometry y="110" width="140" height="40" as="geometry" />
        </mxCell>
        <mxCell id="u5Uj2PZvU90YkLQhT8Kh-125" value="Stock du produit" style="text;whiteSpace=wrap;html=1;" parent="u5Uj2PZvU90YkLQhT8Kh-57" vertex="1">
          <mxGeometry y="150" width="140" height="40" as="geometry" />
        </mxCell>
        <mxCell id="u5Uj2PZvU90YkLQhT8Kh-58" value="Avis" style="swimlane;fontStyle=0;childLayout=stackLayout;horizontal=1;startSize=30;horizontalStack=0;resizeParent=1;resizeParentMax=0;resizeLast=0;collapsible=1;marginBottom=0;whiteSpace=wrap;html=1;" parent="WIyWlLk6GJQsqaUBKTNV-1" vertex="1">
          <mxGeometry x="1180" y="610" width="140" height="230" as="geometry" />
        </mxCell>
        <mxCell id="u5Uj2PZvU90YkLQhT8Kh-130" value="Note de l&#39;avis" style="text;whiteSpace=wrap;html=1;" parent="u5Uj2PZvU90YkLQhT8Kh-58" vertex="1">
          <mxGeometry y="30" width="140" height="40" as="geometry" />
        </mxCell>
        <mxCell id="u5Uj2PZvU90YkLQhT8Kh-131" value="Contenu de l&#39;avis" style="text;whiteSpace=wrap;html=1;" parent="u5Uj2PZvU90YkLQhT8Kh-58" vertex="1">
          <mxGeometry y="70" width="140" height="40" as="geometry" />
        </mxCell>
        <mxCell id="u5Uj2PZvU90YkLQhT8Kh-132" value="Auteur de l&#39;avis" style="text;whiteSpace=wrap;html=1;" parent="u5Uj2PZvU90YkLQhT8Kh-58" vertex="1">
          <mxGeometry y="110" width="140" height="40" as="geometry" />
        </mxCell>
        <mxCell id="u5Uj2PZvU90YkLQhT8Kh-133" value="Date de publication" style="text;whiteSpace=wrap;html=1;" parent="u5Uj2PZvU90YkLQhT8Kh-58" vertex="1">
          <mxGeometry y="150" width="140" height="40" as="geometry" />
        </mxCell>
        <mxCell id="u5Uj2PZvU90YkLQhT8Kh-134" value="Produit concerné par l&#39;avis" style="text;whiteSpace=wrap;html=1;" parent="u5Uj2PZvU90YkLQhT8Kh-58" vertex="1">
          <mxGeometry y="190" width="140" height="40" as="geometry" />
        </mxCell>
        <mxCell id="u5Uj2PZvU90YkLQhT8Kh-59" value="Image Ph" style="swimlane;fontStyle=0;childLayout=stackLayout;horizontal=1;startSize=30;horizontalStack=0;resizeParent=1;resizeParentMax=0;resizeLast=0;collapsible=1;marginBottom=0;whiteSpace=wrap;html=1;" parent="WIyWlLk6GJQsqaUBKTNV-1" vertex="1">
          <mxGeometry x="1050" y="610" width="100" height="110" as="geometry" />
        </mxCell>
        <mxCell id="u5Uj2PZvU90YkLQhT8Kh-120" value="Description de l&#39;image" style="text;whiteSpace=wrap;html=1;" parent="u5Uj2PZvU90YkLQhT8Kh-59" vertex="1">
          <mxGeometry y="30" width="100" height="40" as="geometry" />
        </mxCell>
        <mxCell id="u5Uj2PZvU90YkLQhT8Kh-121" value="Format de l&#39;image" style="text;whiteSpace=wrap;html=1;" parent="u5Uj2PZvU90YkLQhT8Kh-59" vertex="1">
          <mxGeometry y="70" width="100" height="40" as="geometry" />
        </mxCell>
        <mxCell id="u5Uj2PZvU90YkLQhT8Kh-60" value="Livraison" style="swimlane;fontStyle=0;childLayout=stackLayout;horizontal=1;startSize=30;horizontalStack=0;resizeParent=1;resizeParentMax=0;resizeLast=0;collapsible=1;marginBottom=0;whiteSpace=wrap;html=1;" parent="WIyWlLk6GJQsqaUBKTNV-1" vertex="1">
          <mxGeometry x="890" y="560" width="140" height="190" as="geometry" />
        </mxCell>
        <mxCell id="u5Uj2PZvU90YkLQhT8Kh-116" value="Méthode de livraison" style="text;whiteSpace=wrap;html=1;" parent="u5Uj2PZvU90YkLQhT8Kh-60" vertex="1">
          <mxGeometry y="30" width="140" height="40" as="geometry" />
        </mxCell>
        <mxCell id="u5Uj2PZvU90YkLQhT8Kh-117" value="Prix de la livraison" style="text;whiteSpace=wrap;html=1;" parent="u5Uj2PZvU90YkLQhT8Kh-60" vertex="1">
          <mxGeometry y="70" width="140" height="40" as="geometry" />
        </mxCell>
        <mxCell id="u5Uj2PZvU90YkLQhT8Kh-118" value="Délai de livraison" style="text;whiteSpace=wrap;html=1;" parent="u5Uj2PZvU90YkLQhT8Kh-60" vertex="1">
          <mxGeometry y="110" width="140" height="40" as="geometry" />
        </mxCell>
        <mxCell id="u5Uj2PZvU90YkLQhT8Kh-119" value="Adresse de livraison" style="text;whiteSpace=wrap;html=1;" parent="u5Uj2PZvU90YkLQhT8Kh-60" vertex="1">
          <mxGeometry y="150" width="140" height="40" as="geometry" />
        </mxCell>
        <mxCell id="u5Uj2PZvU90YkLQhT8Kh-61" value="" style="endArrow=none;html=1;rounded=0;entryX=1;entryY=1;entryDx=0;entryDy=0;exitX=0.5;exitY=0;exitDx=0;exitDy=0;" parent="WIyWlLk6GJQsqaUBKTNV-1" source="u5Uj2PZvU90YkLQhT8Kh-56" target="u5Uj2PZvU90YkLQhT8Kh-42" edge="1">
          <mxGeometry width="50" height="50" relative="1" as="geometry">
            <mxPoint x="870" y="420" as="sourcePoint" />
            <mxPoint x="905" y="185" as="targetPoint" />
          </mxGeometry>
        </mxCell>
        <mxCell id="u5Uj2PZvU90YkLQhT8Kh-62" value="" style="endArrow=none;html=1;rounded=0;exitX=0;exitY=0.5;exitDx=0;exitDy=0;entryX=0;entryY=1;entryDx=0;entryDy=0;" parent="WIyWlLk6GJQsqaUBKTNV-1" source="u5Uj2PZvU90YkLQhT8Kh-133" target="u5Uj2PZvU90YkLQhT8Kh-42" edge="1">
          <mxGeometry width="50" height="50" relative="1" as="geometry">
            <mxPoint x="830" y="670" as="sourcePoint" />
            <mxPoint x="810" y="240" as="targetPoint" />
            <Array as="points">
              <mxPoint x="1150" y="790" />
              <mxPoint x="1050" y="790" />
              <mxPoint x="850" y="800" />
            </Array>
          </mxGeometry>
        </mxCell>
        <mxCell id="u5Uj2PZvU90YkLQhT8Kh-64" value="" style="endArrow=none;html=1;rounded=0;exitX=0.5;exitY=0;exitDx=0;exitDy=0;entryX=0.5;entryY=1;entryDx=0;entryDy=0;" parent="WIyWlLk6GJQsqaUBKTNV-1" source="u5Uj2PZvU90YkLQhT8Kh-57" target="u5Uj2PZvU90YkLQhT8Kh-128" edge="1">
          <mxGeometry width="50" height="50" relative="1" as="geometry">
            <mxPoint x="1170" y="260" as="sourcePoint" />
            <mxPoint x="1240" y="200" as="targetPoint" />
          </mxGeometry>
        </mxCell>
        <mxCell id="u5Uj2PZvU90YkLQhT8Kh-65" value="" style="endArrow=none;html=1;rounded=0;entryX=0.5;entryY=1;entryDx=0;entryDy=0;exitX=0.5;exitY=0;exitDx=0;exitDy=0;" parent="WIyWlLk6GJQsqaUBKTNV-1" source="u5Uj2PZvU90YkLQhT8Kh-58" target="u5Uj2PZvU90YkLQhT8Kh-57" edge="1">
          <mxGeometry width="50" height="50" relative="1" as="geometry">
            <mxPoint x="1200" y="470" as="sourcePoint" />
            <mxPoint x="1155" y="375" as="targetPoint" />
          </mxGeometry>
        </mxCell>
        <mxCell id="u5Uj2PZvU90YkLQhT8Kh-66" value="" style="endArrow=none;html=1;rounded=0;entryX=0.5;entryY=1;entryDx=0;entryDy=0;exitX=0.5;exitY=0;exitDx=0;exitDy=0;" parent="WIyWlLk6GJQsqaUBKTNV-1" source="u5Uj2PZvU90YkLQhT8Kh-60" target="u5Uj2PZvU90YkLQhT8Kh-56" edge="1">
          <mxGeometry width="50" height="50" relative="1" as="geometry">
            <mxPoint x="910" y="550" as="sourcePoint" />
            <mxPoint x="865" y="455" as="targetPoint" />
          </mxGeometry>
        </mxCell>
        <mxCell id="u5Uj2PZvU90YkLQhT8Kh-67" value="" style="endArrow=none;html=1;rounded=0;entryX=0;entryY=1;entryDx=0;entryDy=0;exitX=0.5;exitY=0;exitDx=0;exitDy=0;" parent="WIyWlLk6GJQsqaUBKTNV-1" source="u5Uj2PZvU90YkLQhT8Kh-59" target="u5Uj2PZvU90YkLQhT8Kh-57" edge="1">
          <mxGeometry width="50" height="50" relative="1" as="geometry">
            <mxPoint x="1130" y="450" as="sourcePoint" />
            <mxPoint x="1085" y="355" as="targetPoint" />
          </mxGeometry>
        </mxCell>
        <mxCell id="u5Uj2PZvU90YkLQhT8Kh-68" value="" style="endArrow=none;html=1;rounded=0;entryX=1;entryY=0.5;entryDx=0;entryDy=0;exitX=0;exitY=0.25;exitDx=0;exitDy=0;" parent="WIyWlLk6GJQsqaUBKTNV-1" source="u5Uj2PZvU90YkLQhT8Kh-57" target="u5Uj2PZvU90YkLQhT8Kh-56" edge="1">
          <mxGeometry width="50" height="50" relative="1" as="geometry">
            <mxPoint x="1070" y="370" as="sourcePoint" />
            <mxPoint x="1025" y="275" as="targetPoint" />
          </mxGeometry>
        </mxCell>
        <mxCell id="u5Uj2PZvU90YkLQhT8Kh-69" value="Tag" style="swimlane;fontStyle=0;childLayout=stackLayout;horizontal=1;startSize=30;horizontalStack=0;resizeParent=1;resizeParentMax=0;resizeLast=0;collapsible=1;marginBottom=0;whiteSpace=wrap;html=1;" parent="WIyWlLk6GJQsqaUBKTNV-1" vertex="1">
          <mxGeometry x="1501" y="200" width="140" height="150" as="geometry" />
        </mxCell>
        <mxCell id="u5Uj2PZvU90YkLQhT8Kh-138" value="Nom du tag" style="text;whiteSpace=wrap;html=1;" parent="u5Uj2PZvU90YkLQhT8Kh-69" vertex="1">
          <mxGeometry y="30" width="140" height="40" as="geometry" />
        </mxCell>
        <mxCell id="u5Uj2PZvU90YkLQhT8Kh-139" value="Description du tag" style="text;whiteSpace=wrap;html=1;" parent="u5Uj2PZvU90YkLQhT8Kh-69" vertex="1">
          <mxGeometry y="70" width="140" height="40" as="geometry" />
        </mxCell>
        <mxCell id="u5Uj2PZvU90YkLQhT8Kh-140" value="Articles associés au tag" style="text;whiteSpace=wrap;html=1;" parent="u5Uj2PZvU90YkLQhT8Kh-69" vertex="1">
          <mxGeometry y="110" width="140" height="40" as="geometry" />
        </mxCell>
        <mxCell id="u5Uj2PZvU90YkLQhT8Kh-70" value="Categorie" style="swimlane;fontStyle=0;childLayout=stackLayout;horizontal=1;startSize=30;horizontalStack=0;resizeParent=1;resizeParentMax=0;resizeLast=0;collapsible=1;marginBottom=0;whiteSpace=wrap;html=1;" parent="WIyWlLk6GJQsqaUBKTNV-1" vertex="1">
          <mxGeometry x="1501" y="390" width="140" height="110" as="geometry" />
        </mxCell>
        <mxCell id="u5Uj2PZvU90YkLQhT8Kh-142" value="Nom de la catégorie" style="text;whiteSpace=wrap;html=1;" parent="u5Uj2PZvU90YkLQhT8Kh-70" vertex="1">
          <mxGeometry y="30" width="140" height="40" as="geometry" />
        </mxCell>
        <mxCell id="u5Uj2PZvU90YkLQhT8Kh-141" value="Description de la catégorie" style="text;whiteSpace=wrap;html=1;" parent="u5Uj2PZvU90YkLQhT8Kh-70" vertex="1">
          <mxGeometry y="70" width="140" height="40" as="geometry" />
        </mxCell>
        <mxCell id="u5Uj2PZvU90YkLQhT8Kh-71" value="Sous_categ" style="swimlane;fontStyle=0;childLayout=stackLayout;horizontal=1;startSize=30;horizontalStack=0;resizeParent=1;resizeParentMax=0;resizeLast=0;collapsible=1;marginBottom=0;whiteSpace=wrap;html=1;" parent="WIyWlLk6GJQsqaUBKTNV-1" vertex="1">
          <mxGeometry x="1501" y="620" width="140" height="150" as="geometry" />
        </mxCell>
        <mxCell id="u5Uj2PZvU90YkLQhT8Kh-135" value="Nom de la sous-catégorie" style="text;whiteSpace=wrap;html=1;" parent="u5Uj2PZvU90YkLQhT8Kh-71" vertex="1">
          <mxGeometry y="30" width="140" height="40" as="geometry" />
        </mxCell>
        <mxCell id="u5Uj2PZvU90YkLQhT8Kh-136" value="Description de la sous-catégorie" style="text;whiteSpace=wrap;html=1;" parent="u5Uj2PZvU90YkLQhT8Kh-71" vertex="1">
          <mxGeometry y="70" width="140" height="40" as="geometry" />
        </mxCell>
        <mxCell id="u5Uj2PZvU90YkLQhT8Kh-137" value="Catégorie parente" style="text;whiteSpace=wrap;html=1;" parent="u5Uj2PZvU90YkLQhT8Kh-71" vertex="1">
          <mxGeometry y="110" width="140" height="40" as="geometry" />
        </mxCell>
        <mxCell id="u5Uj2PZvU90YkLQhT8Kh-72" value="" style="endArrow=none;html=1;rounded=0;exitX=1;exitY=0;exitDx=0;exitDy=0;entryX=0;entryY=1;entryDx=0;entryDy=0;" parent="WIyWlLk6GJQsqaUBKTNV-1" source="u5Uj2PZvU90YkLQhT8Kh-57" target="u5Uj2PZvU90YkLQhT8Kh-69" edge="1">
          <mxGeometry width="50" height="50" relative="1" as="geometry">
            <mxPoint x="1420" y="460" as="sourcePoint" />
            <mxPoint x="1410" y="310" as="targetPoint" />
          </mxGeometry>
        </mxCell>
        <mxCell id="u5Uj2PZvU90YkLQhT8Kh-73" value="" style="endArrow=none;html=1;rounded=0;exitX=0;exitY=0;exitDx=0;exitDy=0;entryX=1;entryY=1;entryDx=0;entryDy=0;" parent="WIyWlLk6GJQsqaUBKTNV-1" source="u5Uj2PZvU90YkLQhT8Kh-136" target="u5Uj2PZvU90YkLQhT8Kh-57" edge="1">
          <mxGeometry width="50" height="50" relative="1" as="geometry">
            <mxPoint x="1410" y="460" as="sourcePoint" />
            <mxPoint x="1400" y="310" as="targetPoint" />
          </mxGeometry>
        </mxCell>
        <mxCell id="u5Uj2PZvU90YkLQhT8Kh-74" value="" style="endArrow=none;html=1;rounded=0;exitX=0.5;exitY=0;exitDx=0;exitDy=0;entryX=0.5;entryY=1;entryDx=0;entryDy=0;" parent="WIyWlLk6GJQsqaUBKTNV-1" source="u5Uj2PZvU90YkLQhT8Kh-71" target="u5Uj2PZvU90YkLQhT8Kh-70" edge="1">
          <mxGeometry width="50" height="50" relative="1" as="geometry">
            <mxPoint x="1560" y="460" as="sourcePoint" />
            <mxPoint x="1550" y="310" as="targetPoint" />
          </mxGeometry>
        </mxCell>
        <mxCell id="u5Uj2PZvU90YkLQhT8Kh-143" value="0,n" style="text;html=1;strokeColor=none;fillColor=none;align=center;verticalAlign=middle;whiteSpace=wrap;rounded=0;" parent="WIyWlLk6GJQsqaUBKTNV-1" vertex="1">
          <mxGeometry y="90" width="50" height="30" as="geometry" />
        </mxCell>
        <mxCell id="u5Uj2PZvU90YkLQhT8Kh-144" value="1,1" style="text;html=1;strokeColor=none;fillColor=none;align=center;verticalAlign=middle;whiteSpace=wrap;rounded=0;" parent="WIyWlLk6GJQsqaUBKTNV-1" vertex="1">
          <mxGeometry x="210" y="40" width="50" height="30" as="geometry" />
        </mxCell>
        <mxCell id="u5Uj2PZvU90YkLQhT8Kh-146" value="0,n" style="text;html=1;strokeColor=none;fillColor=none;align=center;verticalAlign=middle;whiteSpace=wrap;rounded=0;" parent="WIyWlLk6GJQsqaUBKTNV-1" vertex="1">
          <mxGeometry x="-170" y="210" width="50" height="30" as="geometry" />
        </mxCell>
        <mxCell id="u5Uj2PZvU90YkLQhT8Kh-147" value="1,1" style="text;html=1;strokeColor=none;fillColor=none;align=center;verticalAlign=middle;whiteSpace=wrap;rounded=0;" parent="WIyWlLk6GJQsqaUBKTNV-1" vertex="1">
          <mxGeometry x="-182.5" y="290" width="50" height="30" as="geometry" />
        </mxCell>
        <mxCell id="u5Uj2PZvU90YkLQhT8Kh-150" value="0,n" style="text;html=1;strokeColor=none;fillColor=none;align=center;verticalAlign=middle;whiteSpace=wrap;rounded=0;" parent="WIyWlLk6GJQsqaUBKTNV-1" vertex="1">
          <mxGeometry x="-250" y="560" width="50" height="30" as="geometry" />
        </mxCell>
        <mxCell id="u5Uj2PZvU90YkLQhT8Kh-151" value="1,1" style="text;html=1;strokeColor=none;fillColor=none;align=center;verticalAlign=middle;whiteSpace=wrap;rounded=0;" parent="WIyWlLk6GJQsqaUBKTNV-1" vertex="1">
          <mxGeometry x="-92.5" y="470" width="50" height="30" as="geometry" />
        </mxCell>
        <mxCell id="u5Uj2PZvU90YkLQhT8Kh-152" value="0,n" style="text;html=1;strokeColor=none;fillColor=none;align=center;verticalAlign=middle;whiteSpace=wrap;rounded=0;" parent="WIyWlLk6GJQsqaUBKTNV-1" vertex="1">
          <mxGeometry x="-142.5" y="555" width="50" height="30" as="geometry" />
        </mxCell>
        <mxCell id="u5Uj2PZvU90YkLQhT8Kh-153" value="0,1" style="text;html=1;strokeColor=none;fillColor=none;align=center;verticalAlign=middle;whiteSpace=wrap;rounded=0;" parent="WIyWlLk6GJQsqaUBKTNV-1" vertex="1">
          <mxGeometry x="30" y="480" width="50" height="30" as="geometry" />
        </mxCell>
        <mxCell id="u5Uj2PZvU90YkLQhT8Kh-154" value="1,1" style="text;html=1;strokeColor=none;fillColor=none;align=center;verticalAlign=middle;whiteSpace=wrap;rounded=0;" parent="WIyWlLk6GJQsqaUBKTNV-1" vertex="1">
          <mxGeometry x="-20" y="560" width="50" height="30" as="geometry" />
        </mxCell>
        <mxCell id="u5Uj2PZvU90YkLQhT8Kh-155" value="1,1" style="text;html=1;strokeColor=none;fillColor=none;align=center;verticalAlign=middle;whiteSpace=wrap;rounded=0;" parent="WIyWlLk6GJQsqaUBKTNV-1" vertex="1">
          <mxGeometry x="-10" y="690" width="50" height="30" as="geometry" />
        </mxCell>
        <mxCell id="u5Uj2PZvU90YkLQhT8Kh-157" value="0,n" style="text;html=1;strokeColor=none;fillColor=none;align=center;verticalAlign=middle;whiteSpace=wrap;rounded=0;" parent="WIyWlLk6GJQsqaUBKTNV-1" vertex="1">
          <mxGeometry x="120" y="720" width="50" height="30" as="geometry" />
        </mxCell>
        <mxCell id="u5Uj2PZvU90YkLQhT8Kh-158" value="1,1" style="text;html=1;strokeColor=none;fillColor=none;align=center;verticalAlign=middle;whiteSpace=wrap;rounded=0;" parent="WIyWlLk6GJQsqaUBKTNV-1" vertex="1">
          <mxGeometry x="380" y="810" width="50" height="30" as="geometry" />
        </mxCell>
        <mxCell id="u5Uj2PZvU90YkLQhT8Kh-159" value="0,n" style="text;html=1;strokeColor=none;fillColor=none;align=center;verticalAlign=middle;whiteSpace=wrap;rounded=0;" parent="WIyWlLk6GJQsqaUBKTNV-1" vertex="1">
          <mxGeometry x="500" y="860" width="110" height="30" as="geometry" />
        </mxCell>
        <mxCell id="u5Uj2PZvU90YkLQhT8Kh-160" value="0,n" style="text;html=1;strokeColor=none;fillColor=none;align=center;verticalAlign=middle;whiteSpace=wrap;rounded=0;" parent="WIyWlLk6GJQsqaUBKTNV-1" vertex="1">
          <mxGeometry x="690" y="750" width="50" height="30" as="geometry" />
        </mxCell>
        <mxCell id="u5Uj2PZvU90YkLQhT8Kh-165" value="1,n" style="text;html=1;strokeColor=none;fillColor=none;align=center;verticalAlign=middle;whiteSpace=wrap;rounded=0;" parent="WIyWlLk6GJQsqaUBKTNV-1" vertex="1">
          <mxGeometry x="195" y="330" width="50" height="30" as="geometry" />
        </mxCell>
        <mxCell id="u5Uj2PZvU90YkLQhT8Kh-171" value="0,n" style="text;html=1;strokeColor=none;fillColor=none;align=center;verticalAlign=middle;whiteSpace=wrap;rounded=0;" parent="WIyWlLk6GJQsqaUBKTNV-1" vertex="1">
          <mxGeometry x="1250" y="850" width="50" height="30" as="geometry" />
        </mxCell>
        <mxCell id="u5Uj2PZvU90YkLQhT8Kh-173" value="0,n" style="text;html=1;strokeColor=none;fillColor=none;align=center;verticalAlign=middle;whiteSpace=wrap;rounded=0;" parent="WIyWlLk6GJQsqaUBKTNV-1" vertex="1">
          <mxGeometry x="950" y="370" width="50" height="30" as="geometry" />
        </mxCell>
        <mxCell id="u5Uj2PZvU90YkLQhT8Kh-175" value="1,n" style="text;html=1;strokeColor=none;fillColor=none;align=center;verticalAlign=middle;whiteSpace=wrap;rounded=0;" parent="WIyWlLk6GJQsqaUBKTNV-1" vertex="1">
          <mxGeometry x="920" y="530" width="50" height="30" as="geometry" />
        </mxCell>
        <mxCell id="u5Uj2PZvU90YkLQhT8Kh-176" value="1,1" style="text;html=1;strokeColor=none;fillColor=none;align=center;verticalAlign=middle;whiteSpace=wrap;rounded=0;" parent="WIyWlLk6GJQsqaUBKTNV-1" vertex="1">
          <mxGeometry x="1130" y="520" width="50" height="30" as="geometry" />
        </mxCell>
        <mxCell id="u5Uj2PZvU90YkLQhT8Kh-177" value="0,n" style="text;html=1;strokeColor=none;fillColor=none;align=center;verticalAlign=middle;whiteSpace=wrap;rounded=0;" parent="WIyWlLk6GJQsqaUBKTNV-1" vertex="1">
          <mxGeometry x="1107" y="580" width="50" height="30" as="geometry" />
        </mxCell>
        <mxCell id="u5Uj2PZvU90YkLQhT8Kh-178" value="1,1" style="text;html=1;strokeColor=none;fillColor=none;align=center;verticalAlign=middle;whiteSpace=wrap;rounded=0;" parent="WIyWlLk6GJQsqaUBKTNV-1" vertex="1">
          <mxGeometry x="1202" y="540" width="50" height="30" as="geometry" />
        </mxCell>
        <mxCell id="u5Uj2PZvU90YkLQhT8Kh-179" value="0,n" style="text;html=1;strokeColor=none;fillColor=none;align=center;verticalAlign=middle;whiteSpace=wrap;rounded=0;" parent="WIyWlLk6GJQsqaUBKTNV-1" vertex="1">
          <mxGeometry x="1247" y="580" width="50" height="30" as="geometry" />
        </mxCell>
        <mxCell id="u5Uj2PZvU90YkLQhT8Kh-180" value="1,n" style="text;html=1;strokeColor=none;fillColor=none;align=center;verticalAlign=middle;whiteSpace=wrap;rounded=0;" parent="WIyWlLk6GJQsqaUBKTNV-1" vertex="1">
          <mxGeometry x="1140" y="370" width="50" height="30" as="geometry" />
        </mxCell>
        <mxCell id="u5Uj2PZvU90YkLQhT8Kh-181" value="0,n" style="text;html=1;strokeColor=none;fillColor=none;align=center;verticalAlign=middle;whiteSpace=wrap;rounded=0;" parent="WIyWlLk6GJQsqaUBKTNV-1" vertex="1">
          <mxGeometry x="1070" y="430" width="50" height="30" as="geometry" />
        </mxCell>
        <mxCell id="u5Uj2PZvU90YkLQhT8Kh-182" value="1,1" style="text;html=1;strokeColor=none;fillColor=none;align=center;verticalAlign=middle;whiteSpace=wrap;rounded=0;" parent="WIyWlLk6GJQsqaUBKTNV-1" vertex="1">
          <mxGeometry x="1180" y="250" width="50" height="30" as="geometry" />
        </mxCell>
        <mxCell id="u5Uj2PZvU90YkLQhT8Kh-183" value="0,n" style="text;html=1;strokeColor=none;fillColor=none;align=center;verticalAlign=middle;whiteSpace=wrap;rounded=0;" parent="WIyWlLk6GJQsqaUBKTNV-1" vertex="1">
          <mxGeometry x="1240" y="320" width="50" height="30" as="geometry" />
        </mxCell>
        <mxCell id="u5Uj2PZvU90YkLQhT8Kh-184" value="0,n" style="text;html=1;strokeColor=none;fillColor=none;align=center;verticalAlign=middle;whiteSpace=wrap;rounded=0;" parent="WIyWlLk6GJQsqaUBKTNV-1" vertex="1">
          <mxGeometry x="1320" y="500" width="50" height="30" as="geometry" />
        </mxCell>
        <mxCell id="u5Uj2PZvU90YkLQhT8Kh-185" value="1,1" style="text;html=1;strokeColor=none;fillColor=none;align=center;verticalAlign=middle;whiteSpace=wrap;rounded=0;" parent="WIyWlLk6GJQsqaUBKTNV-1" vertex="1">
          <mxGeometry x="1451" y="680" width="50" height="30" as="geometry" />
        </mxCell>
        <mxCell id="u5Uj2PZvU90YkLQhT8Kh-186" value="0,n" style="text;html=1;strokeColor=none;fillColor=none;align=center;verticalAlign=middle;whiteSpace=wrap;rounded=0;" parent="WIyWlLk6GJQsqaUBKTNV-1" vertex="1">
          <mxGeometry x="1320" y="350" width="50" height="30" as="geometry" />
        </mxCell>
        <mxCell id="u5Uj2PZvU90YkLQhT8Kh-187" value="0,n" style="text;html=1;strokeColor=none;fillColor=none;align=center;verticalAlign=middle;whiteSpace=wrap;rounded=0;" parent="WIyWlLk6GJQsqaUBKTNV-1" vertex="1">
          <mxGeometry x="1451" y="320" width="50" height="30" as="geometry" />
        </mxCell>
        <mxCell id="u5Uj2PZvU90YkLQhT8Kh-188" value="1,1" style="text;html=1;strokeColor=none;fillColor=none;align=center;verticalAlign=middle;whiteSpace=wrap;rounded=0;" parent="WIyWlLk6GJQsqaUBKTNV-1" vertex="1">
          <mxGeometry x="1571" y="500" width="50" height="30" as="geometry" />
        </mxCell>
        <mxCell id="u5Uj2PZvU90YkLQhT8Kh-189" value="0,n" style="text;html=1;strokeColor=none;fillColor=none;align=center;verticalAlign=middle;whiteSpace=wrap;rounded=0;" parent="WIyWlLk6GJQsqaUBKTNV-1" vertex="1">
          <mxGeometry x="1521" y="590" width="50" height="30" as="geometry" />
        </mxCell>
        <mxCell id="u5Uj2PZvU90YkLQhT8Kh-191" value="" style="endArrow=none;html=1;rounded=0;entryX=0.25;entryY=1;entryDx=0;entryDy=0;exitX=0.75;exitY=0;exitDx=0;exitDy=0;" parent="WIyWlLk6GJQsqaUBKTNV-1" source="u5Uj2PZvU90YkLQhT8Kh-43" target="u5Uj2PZvU90YkLQhT8Kh-103" edge="1">
          <mxGeometry width="50" height="50" relative="1" as="geometry">
            <mxPoint x="310" y="460" as="sourcePoint" />
            <mxPoint x="420" y="380" as="targetPoint" />
          </mxGeometry>
        </mxCell>
        <mxCell id="u5Uj2PZvU90YkLQhT8Kh-193" value="0,n" style="text;html=1;strokeColor=none;fillColor=none;align=center;verticalAlign=middle;whiteSpace=wrap;rounded=0;" parent="WIyWlLk6GJQsqaUBKTNV-1" vertex="1">
          <mxGeometry x="245" y="555" width="50" height="30" as="geometry" />
        </mxCell>
        <mxCell id="u5Uj2PZvU90YkLQhT8Kh-194" value="1,1" style="text;html=1;strokeColor=none;fillColor=none;align=center;verticalAlign=middle;whiteSpace=wrap;rounded=0;" parent="WIyWlLk6GJQsqaUBKTNV-1" vertex="1">
          <mxGeometry x="285" y="290" width="50" height="30" as="geometry" />
        </mxCell>
        <mxCell id="u5Uj2PZvU90YkLQhT8Kh-195" value="1,1" style="text;html=1;strokeColor=none;fillColor=none;align=center;verticalAlign=middle;whiteSpace=wrap;rounded=0;" parent="WIyWlLk6GJQsqaUBKTNV-1" vertex="1">
          <mxGeometry x="227.5" y="260" width="50" height="30" as="geometry" />
        </mxCell>
        <mxCell id="u5Uj2PZvU90YkLQhT8Kh-196" value="1,1" style="text;html=1;strokeColor=none;fillColor=none;align=center;verticalAlign=middle;whiteSpace=wrap;rounded=0;" parent="WIyWlLk6GJQsqaUBKTNV-1" vertex="1">
          <mxGeometry x="360" y="280" width="50" height="30" as="geometry" />
        </mxCell>
        <mxCell id="u5Uj2PZvU90YkLQhT8Kh-201" value="1,1" style="text;html=1;strokeColor=none;fillColor=none;align=center;verticalAlign=middle;whiteSpace=wrap;rounded=0;" parent="WIyWlLk6GJQsqaUBKTNV-1" vertex="1">
          <mxGeometry x="810" y="336" width="50" height="30" as="geometry" />
        </mxCell>
        <mxCell id="u5Uj2PZvU90YkLQhT8Kh-202" value="1,1" style="text;html=1;strokeColor=none;fillColor=none;align=center;verticalAlign=middle;whiteSpace=wrap;rounded=0;" parent="WIyWlLk6GJQsqaUBKTNV-1" vertex="1">
          <mxGeometry x="1010" y="330" width="50" height="30" as="geometry" />
        </mxCell>
        <mxCell id="u5Uj2PZvU90YkLQhT8Kh-203" value="1,1" style="text;html=1;strokeColor=none;fillColor=none;align=center;verticalAlign=middle;whiteSpace=wrap;rounded=0;" parent="WIyWlLk6GJQsqaUBKTNV-1" vertex="1">
          <mxGeometry x="1000" y="460" width="50" height="30" as="geometry" />
        </mxCell>
        <mxCell id="rRpPaMV5QluzqFvEl-1M-1" value="" style="endArrow=none;html=1;rounded=0;entryX=0;entryY=0;entryDx=0;entryDy=0;exitX=0;exitY=0;exitDx=0;exitDy=0;" edge="1" parent="WIyWlLk6GJQsqaUBKTNV-1" source="u5Uj2PZvU90YkLQhT8Kh-39" target="u5Uj2PZvU90YkLQhT8Kh-149">
          <mxGeometry width="50" height="50" relative="1" as="geometry">
            <mxPoint x="-190" y="585" as="sourcePoint" />
            <mxPoint x="-370" y="584" as="targetPoint" />
          </mxGeometry>
        </mxCell>
        <mxCell id="u5Uj2PZvU90YkLQhT8Kh-149" value="1,1" style="text;html=1;strokeColor=none;fillColor=none;align=center;verticalAlign=middle;whiteSpace=wrap;rounded=0;" parent="WIyWlLk6GJQsqaUBKTNV-1" vertex="1">
          <mxGeometry x="-370" y="585" width="50" height="30" as="geometry" />
        </mxCell>
      </root>
    </mxGraphModel>
  </diagram>
</mxfile>
